<svg xmlns="http://www.w3.org/2000/svg" viewBox="0 0 680.05 238.87"><title>Asset 1</title><g id="Layer_2" data-name="Layer 2"><g id="Layer_1-2" data-name="Layer 1"><text transform="translate(259.92 148.9)" style="font-size:84.4489517211914px;fill:#231f20;font-family:PTSerif-Caption, PT Serif Caption">Ulul Azmi</text><path d="M116.72,210.66,0,87,90.7,1.37l28.61,30.32L152.89,0,241,93.37Zm-91.93-123,92.65,98.18,98.77-93.22-64-67.86L118.59,56.48,90,26.17Z" style="fill:#37b34a"/><polygon points="117.75 161.18 165.32 116.29 132.87 81.9 118.55 95.42 106.34 82.49 73.09 113.87 117.75 161.18" style="fill:#f6921e"/><text transform="translate(264.55 179.36)" style="font-size:20.107160568237305px;fill:#231f20;font-family:CenturyGothic, Century Gothic">Alumni Rohis SMAN 44 Jakarta 2012</text><path d="M98.14,238.87s-19.57-45.11,26.92-87.12c38.66-34.93,40.68-73.87,40.68-73.87s16.68,19.47,8.43,52.2c0,0,65-38.81,54.57-112,0,0,50.26,83.13-25,133.73S108.55,210.31,98.14,238.87Z" style="fill:#f05a28"/><circle cx="119.98" cy="73.34" r="7.46" style="fill:#f6921e"/></g></g></svg>